<svg xmlns="http://www.w3.org/2000/svg" xmlns:xlink="http://www.w3.org/1999/xlink" width="300" zoomAndPan="magnify" viewBox="0 0 224.87999 225" height="300" preserveAspectRatio="xMidYMid meet" version="1.0"><defs><clipPath id="904f1bef9c"><path d="M 8.175781 20.617188 L 173 20.617188 L 173 204.269531 L 8.175781 204.269531 Z M 8.175781 20.617188 " clip-rule="nonzero"/></clipPath><clipPath id="0b7e492c3e"><path d="M 107 42 L 216.566406 42 L 216.566406 148 L 107 148 Z M 107 42 " clip-rule="nonzero"/></clipPath></defs><g clip-path="url(#904f1bef9c)"><path fill="#fafafa" d="M 150.6875 154.851562 C 153.339844 160.128906 156.40625 165.289062 160.023438 169.96875 C 161.035156 171.28125 162.164062 172.460938 163.222656 173.726562 C 164.3125 175.027344 165.542969 176.214844 166.878906 177.261719 C 165.390625 177.851562 163.984375 178.859375 162.535156 179.578125 C 161.015625 180.332031 159.464844 181.03125 157.890625 181.671875 C 154.742188 182.960938 151.503906 184.035156 148.21875 184.925781 C 142.136719 186.582031 135.871094 187.683594 129.601562 188.3125 C 113.011719 190.117188 96.222656 189.75 79.742188 192.644531 C 71.527344 194.085938 63.472656 196.40625 55.945312 200.015625 C 53.839844 198.820312 51.867188 197.386719 50.066406 195.769531 C 45.011719 191.230469 41.148438 185.4375 38.191406 179.355469 C 34.886719 172.554688 32.777344 165.191406 31.300781 157.792969 C 29.636719 149.472656 28.953125 140.964844 29.214844 132.484375 C 29.476562 124.03125 30.808594 115.734375 32.796875 107.519531 C 34.777344 99.351562 37.230469 91.300781 39.167969 83.121094 C 41.078125 75.03125 42.507812 66.722656 42.3125 58.382812 C 42.128906 50.753906 40.867188 42.359375 36.121094 36.132812 C 34.402344 33.878906 32.128906 31.972656 29.585938 30.671875 C 42.816406 28.90625 56.121094 27.644531 69.453125 26.910156 C 85.777344 26.011719 102.09375 26.300781 118.433594 26.0625 C 123.261719 25.992188 128.089844 25.828125 132.90625 25.511719 C 135.351562 25.351562 137.828125 25.226562 140.257812 24.902344 C 146.207031 24.101562 146.582031 34.480469 146.957031 38.355469 C 147.597656 44.960938 147.121094 51.632812 146.152344 58.183594 C 145.382812 63.386719 144.355469 68.542969 143.324219 73.703125 C 144.910156 72.242188 146.519531 70.8125 148.171875 69.429688 C 148.75 66.480469 149.296875 63.519531 149.761719 60.546875 C 150.917969 53.152344 151.589844 45.617188 150.90625 38.140625 C 150.558594 34.328125 149.855469 30.546875 148.707031 26.894531 C 148.003906 24.664062 146.101562 20.648438 143.34375 20.632812 C 141.136719 20.617188 138.808594 21.140625 136.605469 21.324219 C 132.101562 21.699219 127.585938 21.914062 123.066406 22.03125 C 114.117188 22.269531 105.160156 22.136719 96.210938 22.175781 C 79.808594 22.25 63.417969 23.066406 47.097656 24.675781 C 44.207031 24.964844 41.320312 25.273438 38.4375 25.605469 C 31.347656 26.425781 23.074219 26.46875 16.753906 30.191406 C 11.492188 33.285156 8.253906 38.714844 8.402344 44.859375 C 8.453125 46.820312 8.5625 51.066406 11.09375 51.460938 C 12.878906 51.738281 14.65625 51.304688 16.417969 51.082031 C 18.628906 50.804688 20.886719 50.734375 23.109375 50.5625 C 27.863281 50.191406 32.5625 49.863281 37.234375 49.046875 C 38.664062 53.175781 38.339844 57.824219 38.339844 62.132812 C 38.078125 70.15625 36.410156 78.046875 34.4375 85.800781 C 32.421875 93.730469 30.058594 101.570312 28.265625 109.558594 C 26.4375 117.695312 25.34375 125.980469 25.222656 134.324219 C 24.996094 149.898438 27.683594 166.183594 34.3125 180.363281 C 38.5625 189.460938 45.070312 198.34375 53.90625 203.382812 C 55.09375 204.34375 55.988281 204.378906 57.0625 203.832031 C 71.273438 196.632812 86.84375 195.109375 102.527344 194.128906 C 118.855469 193.105469 135.46875 192.832031 151.28125 188.179688 C 153.191406 187.617188 155.082031 186.996094 156.949219 186.300781 C 160.167969 185.109375 163.3125 183.714844 166.332031 182.085938 C 167.839844 181.273438 169.320312 180.402344 170.757812 179.46875 C 171.449219 179.019531 172.164062 178.78125 172.203125 177.882812 C 172.230469 177.269531 172.046875 176.65625 171.746094 176.121094 C 171.683594 176.007812 171.617188 175.898438 171.542969 175.789062 C 170.976562 174.96875 170.164062 174.355469 169.355469 173.773438 C 166.835938 171.960938 164.667969 169.636719 162.808594 167.160156 C 159.753906 163.085938 157.105469 158.667969 154.761719 154.15625 C 150.398438 145.765625 147.238281 136.773438 145.285156 127.527344 C 144.058594 128.046875 142.835938 128.5625 141.609375 129.085938 C 143.539062 137.992188 146.574219 146.664062 150.683594 154.847656 Z M 13.199219 47.386719 C 13.03125 47.398438 12.875 47.429688 12.730469 47.476562 C 11.566406 42.59375 13.289062 36.742188 17.726562 34.070312 C 23.640625 30.511719 30.753906 34.742188 33.96875 39.949219 C 35.050781 41.703125 35.878906 43.59375 36.515625 45.566406 L 13.199219 47.382812 Z M 13.199219 47.386719 " fill-opacity="1" fill-rule="nonzero"/></g><path fill="#fafafa" d="M 79.089844 53.992188 C 87.632812 52.480469 96.289062 51.753906 104.964844 51.769531 C 107.507812 51.777344 107.507812 47.824219 104.964844 47.820312 C 95.933594 47.800781 86.929688 48.609375 78.039062 50.183594 C 76.988281 50.367188 76.394531 51.652344 76.660156 52.613281 C 76.964844 53.71875 78.035156 54.175781 79.085938 53.992188 Z M 79.089844 53.992188 " fill-opacity="1" fill-rule="nonzero"/><path fill="#fafafa" d="M 59.859375 71.699219 C 75.738281 69.839844 91.617188 67.984375 107.5 66.128906 C 108.558594 66.003906 109.476562 65.308594 109.476562 64.152344 C 109.476562 63.183594 108.566406 62.054688 107.5 62.179688 C 91.617188 64.035156 75.738281 65.890625 59.859375 67.746094 C 58.796875 67.871094 57.882812 68.566406 57.882812 69.722656 C 57.882812 70.695312 58.792969 71.820312 59.859375 71.699219 Z M 59.859375 71.699219 " fill-opacity="1" fill-rule="nonzero"/><path fill="#fafafa" d="M 59.414062 80.34375 C 56.921875 80.832031 57.976562 84.640625 60.464844 84.152344 C 75.949219 81.117188 91.730469 79.820312 107.503906 80.230469 C 110.046875 80.296875 110.046875 76.347656 107.503906 76.28125 C 91.378906 75.859375 75.242188 77.242188 59.414062 80.34375 Z M 59.414062 80.34375 " fill-opacity="1" fill-rule="nonzero"/><path fill="#fafafa" d="M 57.382812 97.84375 C 73.824219 95.917969 90.261719 93.992188 106.699219 92.0625 C 107.761719 91.941406 108.675781 91.246094 108.675781 90.089844 C 108.675781 89.117188 107.765625 87.988281 106.699219 88.113281 C 90.261719 90.039062 73.824219 91.96875 57.382812 93.894531 C 56.324219 94.019531 55.40625 94.714844 55.40625 95.871094 C 55.40625 96.839844 56.316406 97.972656 57.382812 97.84375 Z M 57.382812 97.84375 " fill-opacity="1" fill-rule="nonzero"/><path fill="#fafafa" d="M 108.34375 102.066406 C 90.507812 104.179688 72.675781 106.292969 54.839844 108.40625 C 53.78125 108.53125 52.867188 109.222656 52.867188 110.382812 C 52.867188 111.351562 53.773438 112.480469 54.839844 112.355469 C 72.675781 110.242188 90.507812 108.128906 108.34375 106.015625 C 109.402344 105.890625 110.316406 105.195312 110.316406 104.039062 C 110.316406 103.070312 109.410156 101.9375 108.34375 102.066406 Z M 108.34375 102.066406 " fill-opacity="1" fill-rule="nonzero"/><path fill="#fafafa" d="M 104.222656 132.824219 L 57.386719 138.945312 C 56.328125 139.085938 55.410156 139.753906 55.410156 140.921875 C 55.410156 141.882812 56.320312 143.035156 57.386719 142.898438 L 104.222656 136.773438 C 105.28125 136.636719 106.199219 135.964844 106.199219 134.796875 C 106.199219 133.839844 105.289062 132.683594 104.222656 132.824219 Z M 104.222656 132.824219 " fill-opacity="1" fill-rule="nonzero"/><path fill="#fafafa" d="M 96.777344 146.449219 C 84.59375 148.417969 72.40625 150.382812 60.222656 152.351562 C 59.167969 152.519531 58.582031 153.832031 58.84375 154.78125 C 59.152344 155.902344 60.214844 156.328125 61.273438 156.160156 C 73.460938 154.191406 85.644531 152.226562 97.828125 150.257812 C 98.882812 150.089844 99.46875 148.777344 99.207031 147.828125 C 98.902344 146.707031 97.835938 146.277344 96.78125 146.449219 Z M 96.777344 146.449219 " fill-opacity="1" fill-rule="nonzero"/><g clip-path="url(#0b7e492c3e)"><path fill="#fafafa" d="M 216.457031 44.054688 C 216.425781 42.863281 215.046875 42.199219 214.027344 42.296875 C 194.941406 44.082031 176.390625 50.386719 160.183594 60.613281 C 155.949219 63.285156 151.964844 66.25 148.167969 69.429688 C 146.515625 70.8125 144.90625 72.242188 143.320312 73.703125 C 141.09375 75.753906 138.917969 77.871094 136.789062 80.054688 C 129.65625 87.378906 122.199219 94.65625 117.578125 103.90625 C 112.792969 113.480469 111.082031 124.503906 112.582031 135.085938 C 112.632812 135.441406 112.75 135.734375 112.914062 135.976562 C 111.042969 138.945312 109.273438 141.984375 107.625 145.089844 C 107.085938 146.105469 107.855469 147.453125 108.835938 147.835938 C 110.007812 148.289062 111.042969 147.644531 111.582031 146.625 C 112.75 144.425781 113.992188 142.261719 115.289062 140.132812 C 115.503906 140.109375 115.726562 140.066406 115.960938 139.96875 C 124.511719 136.339844 133.0625 132.714844 141.613281 129.085938 C 142.835938 128.566406 144.0625 128.046875 145.285156 127.527344 C 147.804688 126.457031 150.324219 125.394531 152.839844 124.324219 C 163.289062 119.871094 174 115.078125 182.390625 107.226562 C 185.554688 104.265625 189.054688 99.71875 187.742188 95.347656 C 201.59375 87.390625 211.535156 73.613281 215.128906 58.070312 C 216.195312 53.460938 216.597656 48.78125 216.457031 44.054688 Z M 194.769531 85.054688 C 192.148438 87.441406 189.285156 89.566406 186.226562 91.363281 C 185.882812 91.5625 185.519531 91.757812 185.160156 91.949219 C 184.449219 92.332031 183.722656 92.699219 182.964844 93.027344 C 180.625 94.046875 178.113281 94.773438 175.628906 94.945312 C 174.160156 95.046875 172.097656 95.089844 171.980469 97.101562 C 171.921875 98.164062 172.691406 99.410156 173.878906 99.425781 C 175.855469 99.453125 177.816406 99.257812 179.722656 98.722656 C 181.152344 98.324219 182.488281 97.792969 183.785156 97.136719 C 183.851562 98.1875 183.386719 99.308594 182.871094 100.195312 C 181.71875 102.1875 179.980469 103.757812 178.257812 105.246094 C 174.292969 108.683594 169.84375 111.5 165.207031 113.9375 C 159.898438 116.726562 154.761719 114.519531 149.753906 112.078125 C 148.753906 111.589844 147.351562 112.261719 147.007812 113.285156 C 146.613281 114.449219 147.144531 115.507812 148.214844 116.03125 C 150.488281 117.136719 152.859375 118.03125 155.285156 118.722656 C 148.1875 121.90625 140.925781 124.769531 133.789062 127.796875 C 128.960938 129.847656 124.128906 131.894531 119.300781 133.945312 C 126.574219 123.398438 135.410156 113.921875 145.441406 105.953125 C 158.359375 95.691406 173.117188 88.117188 186.527344 78.570312 C 194.039062 73.21875 201.089844 67.1875 206.925781 60.023438 C 208.65625 57.902344 205.238281 55.382812 203.519531 57.492188 C 193.085938 70.296875 178.742188 78.945312 164.902344 87.585938 C 157.875 91.972656 150.859375 96.40625 144.292969 101.464844 C 137.152344 106.96875 130.585938 113.226562 124.691406 120.042969 C 121.738281 123.460938 118.984375 127.035156 116.402344 130.730469 C 115.902344 122.9375 117.265625 115.089844 120.390625 107.902344 C 122.320312 103.457031 124.980469 99.507812 127.984375 95.808594 C 127.558594 98.472656 127.460938 101.1875 127.714844 103.898438 C 127.820312 105.007812 129.074219 105.878906 130.148438 105.660156 C 131.335938 105.417969 132.023438 104.417969 131.910156 103.230469 C 131.722656 101.25 131.753906 99.371094 132.035156 97.230469 C 132.347656 94.832031 132.800781 92.414062 133.726562 90.164062 C 134.660156 87.894531 136.203125 86.722656 137.871094 84.992188 C 141.632812 81.082031 145.503906 77.316406 149.582031 73.796875 C 147.726562 78.640625 146.203125 83.597656 144.992188 88.652344 C 144.722656 89.765625 145.855469 90.871094 146.886719 90.976562 C 148.152344 91.109375 148.949219 90.203125 149.214844 89.082031 C 150.183594 85.054688 151.394531 81.082031 152.820312 77.191406 C 153.65625 74.90625 154.382812 72.5625 155.484375 70.382812 C 156.660156 68.0625 157.96875 67.140625 160.066406 65.730469 C 166.160156 61.640625 172.671875 58.171875 179.4375 55.316406 C 177.527344 59.507812 175.617188 63.699219 173.710938 67.890625 C 173.234375 68.933594 173.890625 70.238281 174.917969 70.636719 C 176.039062 71.070312 177.191406 70.472656 177.667969 69.425781 C 179.132812 66.207031 180.601562 62.984375 182.066406 59.765625 C 183.054688 57.597656 183.910156 55.242188 185.765625 53.640625 C 187.925781 51.78125 190.617188 51.199219 193.316406 50.445312 C 199.503906 48.707031 205.832031 47.488281 212.214844 46.757812 C 212.230469 46.757812 212.246094 46.753906 212.257812 46.753906 C 212.257812 46.761719 212.257812 46.773438 212.257812 46.785156 C 212.117188 56.613281 208.957031 66.363281 203.589844 74.632812 C 201.097656 78.472656 198.128906 81.996094 194.765625 85.058594 Z M 194.769531 85.054688 " fill-opacity="1" fill-rule="nonzero"/></g></svg>