<svg xmlns="http://www.w3.org/2000/svg" xmlns:xlink="http://www.w3.org/1999/xlink" width="300" zoomAndPan="magnify" viewBox="0 0 224.87999 225" height="300" preserveAspectRatio="xMidYMid meet" version="1.0"><defs><clipPath id="6f59de4bb6"><path d="M 8.175781 20.617188 L 173 20.617188 L 173 204.269531 L 8.175781 204.269531 Z M 8.175781 20.617188 " clip-rule="nonzero"/></clipPath><clipPath id="60b1a4c656"><path d="M 107 42 L 216.566406 42 L 216.566406 148 L 107 148 Z M 107 42 " clip-rule="nonzero"/></clipPath></defs><g clip-path="url(#6f59de4bb6)"><path fill="#161616" d="M 150.601562 154.773438 C 153.25 160.050781 156.3125 165.207031 159.929688 169.882812 C 160.941406 171.191406 162.070312 172.375 163.125 173.636719 C 164.21875 174.9375 165.445312 176.125 166.78125 177.171875 C 165.292969 177.761719 163.886719 178.769531 162.441406 179.484375 C 160.921875 180.238281 159.371094 180.9375 157.800781 181.578125 C 154.652344 182.867188 151.414062 183.941406 148.132812 184.832031 C 142.054688 186.484375 135.792969 187.589844 129.527344 188.214844 C 112.945312 190.019531 96.167969 189.652344 79.699219 192.546875 C 71.488281 193.988281 63.4375 196.304688 55.914062 199.914062 C 53.808594 198.714844 51.839844 197.289062 50.039062 195.671875 C 44.988281 191.132812 41.128906 185.34375 38.171875 179.265625 C 34.871094 172.46875 32.761719 165.105469 31.285156 157.714844 C 29.621094 149.398438 28.941406 140.898438 29.203125 132.421875 C 29.460938 123.972656 30.792969 115.679688 32.78125 107.472656 C 34.757812 99.304688 37.214844 91.261719 39.148438 83.085938 C 41.058594 75 42.488281 66.695312 42.289062 58.359375 C 42.109375 50.738281 40.847656 42.347656 36.101562 36.125 C 34.386719 33.871094 32.113281 31.964844 29.570312 30.667969 C 42.796875 28.898438 56.089844 27.640625 69.414062 26.90625 C 85.730469 26.007812 102.035156 26.296875 118.367188 26.0625 C 123.191406 25.992188 128.015625 25.828125 132.828125 25.507812 C 135.273438 25.347656 137.75 25.226562 140.175781 24.898438 C 146.121094 24.097656 146.496094 34.472656 146.871094 38.34375 C 147.511719 44.949219 147.035156 51.613281 146.066406 58.160156 C 145.296875 63.363281 144.273438 68.515625 143.242188 73.671875 C 144.824219 72.210938 146.4375 70.785156 148.085938 69.402344 C 148.660156 66.453125 149.210938 63.496094 149.675781 60.523438 C 150.832031 53.132812 151.5 45.601562 150.820312 38.128906 C 150.472656 34.320312 149.769531 30.539062 148.621094 26.890625 C 147.917969 24.664062 146.019531 20.648438 143.257812 20.632812 C 141.054688 20.617188 138.730469 21.140625 136.527344 21.324219 C 132.023438 21.699219 127.511719 21.914062 122.996094 22.03125 C 114.050781 22.269531 105.101562 22.136719 96.15625 22.175781 C 79.765625 22.25 63.382812 23.066406 47.074219 24.675781 C 44.1875 24.960938 41.300781 25.269531 38.421875 25.601562 C 31.335938 26.421875 23.066406 26.46875 16.75 30.183594 C 11.492188 33.277344 8.253906 38.703125 8.402344 44.84375 C 8.453125 46.804688 8.5625 51.050781 11.089844 51.445312 C 12.878906 51.71875 14.652344 51.289062 16.410156 51.066406 C 18.621094 50.789062 20.878906 50.71875 23.097656 50.542969 C 27.851562 50.175781 32.546875 49.847656 37.214844 49.03125 C 38.648438 53.15625 38.324219 57.800781 38.324219 62.109375 C 38.0625 70.128906 36.390625 78.011719 34.421875 85.765625 C 32.40625 93.6875 30.046875 101.527344 28.253906 109.507812 C 26.425781 117.636719 25.332031 125.917969 25.210938 134.257812 C 24.984375 149.824219 27.671875 166.097656 34.296875 180.273438 C 38.542969 189.363281 45.046875 198.242188 53.878906 203.277344 C 55.066406 204.238281 55.957031 204.273438 57.03125 203.726562 C 71.234375 196.535156 86.796875 195.007812 102.46875 194.027344 C 118.789062 193.007812 135.390625 192.730469 151.195312 188.082031 C 153.101562 187.523438 154.992188 186.898438 156.859375 186.207031 C 160.074219 185.015625 163.214844 183.621094 166.234375 181.992188 C 167.742188 181.179688 169.21875 180.308594 170.65625 179.378906 C 171.347656 178.929688 172.0625 178.6875 172.101562 177.792969 C 172.128906 177.179688 171.945312 176.566406 171.648438 176.03125 C 171.582031 175.917969 171.515625 175.808594 171.441406 175.703125 C 170.875 174.882812 170.066406 174.265625 169.257812 173.683594 C 166.738281 171.871094 164.570312 169.550781 162.714844 167.074219 C 159.660156 163.003906 157.015625 158.589844 154.671875 154.078125 C 150.308594 145.695312 147.152344 136.707031 145.199219 127.464844 C 143.976562 127.984375 142.75 128.503906 141.527344 129.023438 C 143.457031 137.925781 146.488281 146.589844 150.597656 154.769531 Z M 13.195312 47.371094 C 13.027344 47.382812 12.871094 47.414062 12.726562 47.460938 C 11.5625 42.582031 13.285156 36.734375 17.71875 34.0625 C 23.632812 30.503906 30.738281 34.734375 33.953125 39.9375 C 35.035156 41.691406 35.859375 43.582031 36.496094 45.550781 L 13.195312 47.367188 Z M 13.195312 47.371094 " fill-opacity="1" fill-rule="nonzero"/></g><path fill="#161616" d="M 79.042969 53.972656 C 87.582031 52.460938 96.234375 51.734375 104.90625 51.753906 C 107.445312 51.757812 107.449219 47.808594 104.90625 47.804688 C 95.878906 47.785156 86.878906 48.59375 77.996094 50.164062 C 76.945312 50.351562 76.351562 51.636719 76.617188 52.59375 C 76.921875 53.703125 77.988281 54.15625 79.042969 53.972656 Z M 79.042969 53.972656 " fill-opacity="1" fill-rule="nonzero"/><path fill="#161616" d="M 59.824219 71.667969 C 75.695312 69.8125 91.566406 67.957031 107.4375 66.101562 C 108.496094 65.976562 109.414062 65.285156 109.414062 64.128906 C 109.414062 63.15625 108.503906 62.03125 107.4375 62.152344 C 91.566406 64.007812 75.695312 65.863281 59.824219 67.71875 C 58.765625 67.84375 57.851562 68.539062 57.851562 69.695312 C 57.851562 70.664062 58.761719 71.792969 59.824219 71.667969 Z M 59.824219 71.667969 " fill-opacity="1" fill-rule="nonzero"/><path fill="#161616" d="M 59.382812 80.308594 C 56.890625 80.796875 57.945312 84.601562 60.433594 84.117188 C 75.910156 81.082031 91.679688 79.785156 107.441406 80.195312 C 109.984375 80.261719 109.984375 76.3125 107.441406 76.246094 C 91.328125 75.828125 75.199219 77.207031 59.382812 80.308594 Z M 59.382812 80.308594 " fill-opacity="1" fill-rule="nonzero"/><path fill="#161616" d="M 57.351562 97.800781 C 73.78125 95.875 90.210938 93.949219 106.640625 92.023438 C 107.699219 91.898438 108.613281 91.203125 108.613281 90.046875 C 108.613281 89.078125 107.707031 87.949219 106.640625 88.074219 C 90.210938 90 73.78125 91.925781 57.351562 93.851562 C 56.292969 93.976562 55.378906 94.671875 55.378906 95.828125 C 55.378906 96.796875 56.289062 97.925781 57.351562 97.800781 Z M 57.351562 97.800781 " fill-opacity="1" fill-rule="nonzero"/><path fill="#161616" d="M 108.28125 102.019531 C 90.457031 104.132812 72.636719 106.242188 54.8125 108.355469 C 53.753906 108.480469 52.839844 109.171875 52.839844 110.328125 C 52.839844 111.300781 53.746094 112.429688 54.8125 112.304688 C 72.636719 110.191406 90.457031 108.078125 108.28125 105.964844 C 109.339844 105.839844 110.253906 105.148438 110.253906 103.992188 C 110.253906 103.023438 109.347656 101.890625 108.28125 102.019531 Z M 108.28125 102.019531 " fill-opacity="1" fill-rule="nonzero"/><path fill="#161616" d="M 104.164062 132.757812 L 57.355469 138.878906 C 56.296875 139.015625 55.382812 139.6875 55.382812 140.851562 C 55.382812 141.8125 56.292969 142.964844 57.355469 142.828125 L 104.164062 136.707031 C 105.21875 136.570312 106.136719 135.898438 106.136719 134.734375 C 106.136719 133.773438 105.226562 132.621094 104.164062 132.757812 Z M 104.164062 132.757812 " fill-opacity="1" fill-rule="nonzero"/><path fill="#161616" d="M 96.722656 146.378906 C 84.546875 148.34375 72.367188 150.308594 60.191406 152.273438 C 59.136719 152.445312 58.550781 153.753906 58.8125 154.703125 C 59.121094 155.824219 60.183594 156.25 61.242188 156.082031 C 73.417969 154.117188 85.597656 152.148438 97.773438 150.183594 C 98.828125 150.015625 99.414062 148.703125 99.152344 147.757812 C 98.84375 146.636719 97.78125 146.207031 96.726562 146.378906 Z M 96.722656 146.378906 " fill-opacity="1" fill-rule="nonzero"/><g clip-path="url(#60b1a4c656)"><path fill="#161616" d="M 216.332031 44.042969 C 216.296875 42.847656 214.917969 42.1875 213.898438 42.285156 C 194.824219 44.070312 176.285156 50.371094 160.089844 60.589844 C 155.855469 63.257812 151.878906 66.222656 148.082031 69.402344 C 146.433594 70.785156 144.820312 72.210938 143.238281 73.671875 C 141.011719 75.722656 138.835938 77.839844 136.710938 80.019531 C 129.578125 87.339844 122.128906 94.617188 117.511719 103.859375 C 112.730469 113.429688 111.019531 124.445312 112.519531 135.019531 C 112.570312 135.375 112.6875 135.671875 112.851562 135.910156 C 110.980469 138.878906 109.210938 141.914062 107.5625 145.019531 C 107.027344 146.03125 107.792969 147.382812 108.773438 147.761719 C 109.945312 148.21875 110.980469 147.570312 111.519531 146.554688 C 112.6875 144.355469 113.925781 142.191406 115.222656 140.0625 C 115.4375 140.042969 115.660156 140 115.894531 139.902344 C 124.441406 136.273438 132.984375 132.648438 141.53125 129.023438 C 142.753906 128.503906 143.976562 127.984375 145.203125 127.464844 C 147.71875 126.398438 150.234375 125.335938 152.75 124.261719 C 163.195312 119.8125 173.894531 115.023438 182.28125 107.179688 C 185.445312 104.21875 188.941406 99.675781 187.628906 95.304688 C 201.476562 87.355469 211.410156 73.585938 215.003906 58.050781 C 216.066406 53.441406 216.46875 48.765625 216.332031 44.042969 Z M 194.65625 85.015625 C 192.035156 87.402344 189.175781 89.527344 186.117188 91.320312 C 185.769531 91.523438 185.410156 91.714844 185.050781 91.910156 C 184.339844 92.289062 183.613281 92.65625 182.859375 92.984375 C 180.519531 94.003906 178.007812 94.730469 175.527344 94.902344 C 174.058594 95.003906 171.996094 95.046875 171.882812 97.058594 C 171.820312 98.121094 172.589844 99.367188 173.777344 99.382812 C 175.75 99.40625 177.710938 99.210938 179.617188 98.679688 C 181.042969 98.28125 182.382812 97.75 183.675781 97.09375 C 183.746094 98.144531 183.277344 99.265625 182.765625 100.148438 C 181.613281 102.140625 179.875 103.710938 178.152344 105.199219 C 174.191406 108.632812 169.742188 111.449219 165.109375 113.882812 C 159.804688 116.671875 154.671875 114.464844 149.667969 112.027344 C 148.667969 111.539062 147.265625 112.210938 146.921875 113.234375 C 146.527344 114.394531 147.058594 115.453125 148.128906 115.976562 C 150.398438 117.082031 152.769531 117.972656 155.191406 118.664062 C 148.101562 121.851562 140.84375 124.710938 133.714844 127.734375 C 128.886719 129.785156 124.058594 131.832031 119.230469 133.878906 C 126.503906 123.339844 135.332031 113.871094 145.359375 105.902344 C 158.265625 95.648438 173.015625 88.082031 186.417969 78.535156 C 193.925781 73.191406 200.96875 67.164062 206.804688 60.003906 C 208.53125 57.882812 205.117188 55.359375 203.398438 57.472656 C 192.972656 70.265625 178.636719 78.914062 164.804688 87.546875 C 157.78125 91.933594 150.769531 96.363281 144.210938 101.417969 C 137.074219 106.921875 130.511719 113.171875 124.621094 119.988281 C 121.667969 123.402344 118.914062 126.976562 116.335938 130.667969 C 115.835938 122.878906 117.199219 115.035156 120.320312 107.851562 C 122.25 103.410156 124.90625 99.460938 127.910156 95.765625 C 127.484375 98.429688 127.386719 101.140625 127.644531 103.851562 C 127.746094 104.960938 129 105.832031 130.074219 105.613281 C 131.257812 105.367188 131.945312 104.367188 131.832031 103.183594 C 131.644531 101.203125 131.675781 99.328125 131.957031 97.1875 C 132.273438 94.789062 132.726562 92.371094 133.648438 90.125 C 134.582031 87.855469 136.125 86.683594 137.789062 84.953125 C 141.550781 81.046875 145.417969 77.285156 149.496094 73.765625 C 147.640625 78.609375 146.117188 83.5625 144.90625 88.613281 C 144.640625 89.726562 145.773438 90.832031 146.800781 90.9375 C 148.066406 91.066406 148.863281 90.160156 149.128906 89.042969 C 150.09375 85.015625 151.308594 81.046875 152.730469 77.15625 C 153.566406 74.875 154.292969 72.53125 155.394531 70.355469 C 156.566406 68.035156 157.875 67.113281 159.972656 65.707031 C 166.0625 61.617188 172.570312 58.152344 179.332031 55.296875 C 177.421875 59.488281 175.515625 63.675781 173.605469 67.863281 C 173.132812 68.90625 173.789062 70.207031 174.816406 70.605469 C 175.9375 71.042969 177.085938 70.445312 177.5625 69.398438 C 179.027344 66.179688 180.496094 62.960938 181.960938 59.746094 C 182.949219 57.574219 183.800781 55.21875 185.65625 53.621094 C 187.8125 51.761719 190.507812 51.183594 193.199219 50.425781 C 199.382812 48.691406 205.710938 47.472656 212.089844 46.746094 C 212.105469 46.742188 212.121094 46.742188 212.132812 46.738281 C 212.132812 46.75 212.132812 46.757812 212.132812 46.769531 C 211.992188 56.59375 208.835938 66.335938 203.46875 74.601562 C 200.976562 78.4375 198.011719 81.960938 194.648438 85.019531 Z M 194.65625 85.015625 " fill-opacity="1" fill-rule="nonzero"/></g></svg>