<svg xmlns="http://www.w3.org/2000/svg" xmlns:xlink="http://www.w3.org/1999/xlink" width="1920" zoomAndPan="magnify" viewBox="0 0 1440 1012.49997" height="1350" preserveAspectRatio="xMidYMid meet" version="1.0"><defs><clipPath id="617578f207"><path d="M 4 272 L 1438 272 L 1438 713 L 4 713 Z M 4 272 " clip-rule="nonzero"/></clipPath><clipPath id="57f5317bcc"><path d="M -1.972656 277.109375 L 1437.238281 261.964844 L 1441.972656 711.714844 L 2.761719 726.863281 Z M -1.972656 277.109375 " clip-rule="nonzero"/></clipPath><clipPath id="de47113bed"><path d="M -1.972656 277.109375 L 1437.238281 261.964844 L 1441.972656 711.714844 L 2.761719 726.863281 Z M -1.972656 277.109375 " clip-rule="nonzero"/></clipPath><clipPath id="8e0bbf54c3"><path d="M 774 593 L 1111 593 L 1111 651 L 774 651 Z M 774 593 " clip-rule="nonzero"/></clipPath><clipPath id="115e61ce31"><path d="M -1.972656 277.109375 L 1437.238281 261.964844 L 1441.972656 711.714844 L 2.761719 726.863281 Z M -1.972656 277.109375 " clip-rule="nonzero"/></clipPath><clipPath id="a362ed4852"><path d="M -1.972656 277.109375 L 1437.238281 261.964844 L 1441.972656 711.714844 L 2.761719 726.863281 Z M -1.972656 277.109375 " clip-rule="nonzero"/></clipPath><clipPath id="6f9d010237"><path d="M 793 630 L 1151 630 L 1151 651 L 793 651 Z M 793 630 " clip-rule="nonzero"/></clipPath><clipPath id="cebdf3017d"><path d="M -1.972656 277.109375 L 1437.238281 261.964844 L 1441.972656 711.714844 L 2.761719 726.863281 Z M -1.972656 277.109375 " clip-rule="nonzero"/></clipPath><clipPath id="80184fb5f3"><path d="M -1.972656 277.109375 L 1437.238281 261.964844 L 1441.972656 711.714844 L 2.761719 726.863281 Z M -1.972656 277.109375 " clip-rule="nonzero"/></clipPath><clipPath id="c9300db1c2"><path d="M 394 554 L 683 554 L 683 631 L 394 631 Z M 394 554 " clip-rule="nonzero"/></clipPath><clipPath id="58fd1ade3e"><path d="M -1.972656 277.109375 L 1437.238281 261.964844 L 1441.972656 711.714844 L 2.761719 726.863281 Z M -1.972656 277.109375 " clip-rule="nonzero"/></clipPath><clipPath id="51262994e4"><path d="M -1.972656 277.109375 L 1437.238281 261.964844 L 1441.972656 711.714844 L 2.761719 726.863281 Z M -1.972656 277.109375 " clip-rule="nonzero"/></clipPath><clipPath id="cdedd705fa"><path d="M 183 578 L 669 578 L 669 652 L 183 652 Z M 183 578 " clip-rule="nonzero"/></clipPath><clipPath id="e8471c2484"><path d="M -1.972656 277.109375 L 1437.238281 261.964844 L 1441.972656 711.714844 L 2.761719 726.863281 Z M -1.972656 277.109375 " clip-rule="nonzero"/></clipPath><clipPath id="0798c2b946"><path d="M -1.972656 277.109375 L 1437.238281 261.964844 L 1441.972656 711.714844 L 2.761719 726.863281 Z M -1.972656 277.109375 " clip-rule="nonzero"/></clipPath><clipPath id="92f9873840"><path d="M 351 621 L 651 621 L 651 653 L 351 653 Z M 351 621 " clip-rule="nonzero"/></clipPath><clipPath id="fcb2d801f4"><path d="M -1.972656 277.109375 L 1437.238281 261.964844 L 1441.972656 711.714844 L 2.761719 726.863281 Z M -1.972656 277.109375 " clip-rule="nonzero"/></clipPath><clipPath id="ed9c203497"><path d="M -1.972656 277.109375 L 1437.238281 261.964844 L 1441.972656 711.714844 L 2.761719 726.863281 Z M -1.972656 277.109375 " clip-rule="nonzero"/></clipPath><clipPath id="d47cdd8499"><path d="M 77 641 L 335 641 L 335 653 L 77 653 Z M 77 641 " clip-rule="nonzero"/></clipPath><clipPath id="23f765da12"><path d="M -1.972656 277.109375 L 1437.238281 261.964844 L 1441.972656 711.714844 L 2.761719 726.863281 Z M -1.972656 277.109375 " clip-rule="nonzero"/></clipPath><clipPath id="ee98114c60"><path d="M -1.972656 277.109375 L 1437.238281 261.964844 L 1441.972656 711.714844 L 2.761719 726.863281 Z M -1.972656 277.109375 " clip-rule="nonzero"/></clipPath><clipPath id="4f7301da2c"><path d="M 370 644 L 518 644 L 518 652 L 370 652 Z M 370 644 " clip-rule="nonzero"/></clipPath><clipPath id="71fa21c1bb"><path d="M -1.972656 277.109375 L 1437.238281 261.964844 L 1441.972656 711.714844 L 2.761719 726.863281 Z M -1.972656 277.109375 " clip-rule="nonzero"/></clipPath><clipPath id="dbc8da31e6"><path d="M -1.972656 277.109375 L 1437.238281 261.964844 L 1441.972656 711.714844 L 2.761719 726.863281 Z M -1.972656 277.109375 " clip-rule="nonzero"/></clipPath></defs><g clip-path="url(#617578f207)"><g clip-path="url(#57f5317bcc)"><g clip-path="url(#de47113bed)"><path fill="#fafafa" d="M 479.6875 273.195312 C 474.832031 274.441406 470.421875 277.261719 453.902344 289.515625 C 436.496094 302.417969 427.171875 308.835938 408.554688 320.644531 C 389.558594 332.753906 377.292969 339.542969 358.347656 348.535156 C 340.210938 357.132812 336.988281 359.132812 334.640625 363.210938 C 333.636719 364.972656 333.472656 365.742188 333.5 368.261719 C 333.566406 370.695312 333.792969 371.671875 334.792969 373.582031 C 338.757812 381.054688 351.683594 392.53125 368.488281 403.539062 C 378.074219 409.796875 385.117188 413.734375 394.640625 418.246094 C 398.417969 420.042969 401.378906 421.546875 401.207031 421.550781 C 400.695312 421.554688 390.457031 417.949219 384.796875 415.746094 C 376.011719 412.292969 365.367188 407.027344 354.5 400.695312 C 342.945312 393.945312 339.089844 392.363281 333.535156 392.082031 C 326.402344 391.6875 321.304688 393.789062 306.121094 403.339844 C 272.535156 424.441406 247.605469 436.78125 207.601562 452.273438 C 187.703125 459.953125 182.730469 462.226562 179.390625 465.164062 C 175.625 468.445312 174.777344 472.894531 177.164062 476.667969 C 180.160156 481.460938 190.421875 486.988281 210.738281 494.84375 C 216.4375 497.046875 216.78125 497.253906 215.460938 497.523438 C 212.777344 498.066406 209.808594 499.847656 203.667969 504.605469 C 183.9375 519.882812 162.203125 531.550781 132.609375 542.707031 C 120.703125 547.1875 109.855469 550.542969 92.144531 555.257812 C 75.800781 559.570312 72.824219 560.667969 68.503906 563.957031 C 65.75 566.035156 63.652344 569.515625 56.585938 583.546875 C 43.75 608.996094 40.519531 614.539062 18.640625 648.832031 C 15.070312 654.378906 11.292969 660.648438 10.207031 662.796875 C 7.695312 667.601562 4.460938 676.472656 4.148438 679.207031 C 3.605469 684.464844 8.222656 689.15625 19.550781 694.714844 C 29.246094 699.476562 46.917969 703.304688 68.539062 705.296875 C 97.082031 707.898438 124.488281 708.078125 169.929688 705.9375 C 209.78125 704.023438 319.6875 702.738281 364.777344 703.671875 C 385.65625 704.09375 411.355469 704.421875 438.210938 704.609375 C 468.390625 704.84375 494.007812 705.128906 524.449219 705.621094 C 594.554688 706.761719 628.28125 707.003906 652.097656 706.496094 C 674.246094 706.050781 674.84375 706 681.351562 703.757812 L 683.988281 702.832031 L 687.675781 704.585938 C 695.183594 708.136719 706.871094 711.214844 717.386719 712.382812 C 723.496094 713.046875 735.996094 712.445312 740.9375 711.28125 C 748.304688 709.496094 753.957031 707.089844 758.320312 703.929688 L 760.351562 702.457031 L 763.3125 703.960938 C 768.550781 706.636719 776.292969 708.050781 791.5 709.214844 C 834.347656 712.347656 968.699219 713.238281 1088.628906 711.125 C 1164.855469 709.765625 1183.679688 709.824219 1252.554688 711.40625 C 1294.097656 712.375 1307.761719 712.53125 1352.238281 712.320312 C 1405.253906 712.101562 1411.910156 711.734375 1421.777344 708.300781 C 1426.585938 706.628906 1429.425781 704.976562 1432.597656 701.953125 C 1440.5 694.484375 1439.203125 684.894531 1429.359375 678.382812 C 1427.253906 676.996094 1426.390625 675.894531 1422.441406 669.832031 C 1408.25 647.910156 1403.414062 638.65625 1392.382812 612.390625 C 1380.867188 584.9375 1377.074219 577.589844 1372.203125 573.203125 C 1371.085938 572.234375 1370.175781 571.175781 1370.171875 570.875 C 1370.160156 569.722656 1367.988281 566.03125 1366.652344 564.808594 C 1362.730469 561.222656 1349.855469 554.824219 1322.925781 543.070312 C 1308.171875 536.652344 1248.835938 508.164062 1232.179688 499.546875 C 1228.402344 497.578125 1218.054688 491.925781 1209.210938 486.980469 C 1194.4375 478.683594 1185.984375 474.332031 1184.832031 474.347656 C 1184.574219 474.347656 1184.273438 474.179688 1184.101562 473.96875 C 1183.972656 473.757812 1184.992188 473.320312 1186.3125 473.050781 C 1195.765625 470.988281 1218.230469 463.792969 1227.792969 459.808594 C 1235.996094 456.390625 1239.386719 453.921875 1241.09375 450.0625 C 1242.722656 446.542969 1242.175781 443.390625 1239.414062 440.304688 C 1237.296875 437.9375 1234.507812 436.554688 1224.4375 432.949219 C 1189.554688 420.339844 1166.378906 408.460938 1135.9375 387.476562 C 1126.046875 380.710938 1112.410156 370.820312 1101.953125 362.90625 C 1087.667969 352.042969 1083.886719 349.90625 1079.148438 349.957031 C 1075.523438 349.992188 1073.105469 351.511719 1068.589844 356.597656 C 1057.75 368.835938 1050.339844 374.71875 1037.390625 381.34375 C 1034.460938 382.867188 1029.828125 384.964844 1027.109375 386.0625 C 1010.191406 392.941406 983.4375 398.132812 952.171875 400.554688 C 943.515625 401.242188 934.855469 401.675781 899.695312 403.070312 C 875.414062 404.050781 860.570312 405.144531 842.109375 407.347656 C 799.773438 412.359375 775.808594 418.929688 759.277344 430.117188 C 741.984375 441.824219 731.554688 460.71875 727.652344 487.226562 L 726.734375 493.382812 L 725.742188 488.527344 C 724.394531 481.882812 723.238281 477.710938 721.128906 471.710938 C 713.5625 450.449219 703.707031 434.84375 687.699219 418.789062 C 667.507812 398.554688 643.699219 383.308594 600.027344 362.722656 C 575.144531 350.992188 557.9375 342.550781 551.410156 338.902344 C 525.5625 324.535156 512.238281 311.78125 500.65625 290.433594 C 496 281.816406 494.175781 278.890625 492.273438 276.859375 C 489.082031 273.4375 484.15625 271.992188 479.6875 273.195312 Z M 484.09375 286.296875 C 484.699219 287.058594 486.4375 290.199219 488.007812 293.253906 C 495.070312 307.054688 501.652344 316.207031 511.058594 325.414062 C 524.429688 338.503906 540.582031 348.324219 577.089844 365.527344 C 598.710938 375.714844 619.050781 385.746094 626.824219 390.105469 C 666.285156 412.058594 690.945312 435.105469 704.167969 462.457031 C 709.011719 472.523438 712.796875 483.367188 714.6875 492.742188 C 716.535156 501.941406 717.140625 510.6875 718.015625 541.15625 C 718.871094 569.707031 719.289062 576.871094 720.382812 579.550781 C 720.996094 580.996094 721.183594 582.574219 721.179688 586.160156 C 721.183594 590.554688 718.808594 624.644531 718.210938 628.449219 C 717.96875 630.03125 717.925781 629.90625 717.160156 626.113281 C 713.726562 608.179688 701.898438 579.234375 689.597656 558.53125 C 682.992188 547.457031 674.027344 535.046875 664.644531 524.003906 C 659.027344 517.359375 643.328125 501.945312 636.394531 496.210938 C 596.34375 463.121094 553.503906 444.664062 484.203125 430.535156 C 478.683594 429.398438 468.203125 427.289062 460.886719 425.832031 C 428.164062 419.214844 413 414.507812 394.503906 405.226562 C 382.230469 399.039062 371.402344 392.152344 360.554688 383.644531 C 354.871094 379.179688 346.679688 371.367188 345.679688 369.5 C 344.675781 367.589844 342.851562 368.675781 374.953125 352.585938 C 400.816406 339.636719 429.910156 321.527344 459.351562 300.128906 C 474.644531 289.042969 480.792969 285.007812 482.542969 284.945312 C 482.839844 284.941406 483.53125 285.574219 484.09375 286.296875 Z M 1083.039062 362.679688 C 1084.457031 363.601562 1089.277344 367.222656 1093.753906 370.71875 C 1132.535156 400.960938 1160.339844 418.683594 1188.988281 431.316406 C 1197.179688 434.941406 1214.839844 441.929688 1222.980469 444.746094 C 1225.507812 445.617188 1227.566406 446.449219 1227.570312 446.617188 C 1227.578125 447.472656 1208.695312 454.117188 1196.523438 457.574219 C 1161.195312 467.636719 1122.3125 471.972656 1045.15625 474.535156 C 984.945312 476.492188 954.835938 479.199219 922.972656 485.46875 C 884.25 493.089844 855.9375 504.488281 823.757812 525.402344 C 807.179688 536.164062 793.207031 547.023438 776.335938 562.269531 C 759.167969 577.777344 748.238281 589.714844 733.121094 609.597656 C 729.835938 613.898438 727.101562 617.386719 727.054688 617.34375 C 727.011719 617.300781 727.253906 615.890625 727.578125 614.265625 C 731.632812 593.945312 734.890625 566.847656 738.527344 522.796875 C 740.914062 494.214844 742.265625 484.765625 745.65625 474.1875 C 755.570312 442.835938 775.679688 430.882812 832.917969 422.171875 C 856.402344 418.59375 876.320312 416.933594 916.257812 415.273438 C 956.410156 413.570312 977.132812 411.390625 1000.769531 406.230469 C 1022.363281 401.523438 1036.988281 395.90625 1051.535156 386.703125 C 1060.609375 380.929688 1068.09375 374.359375 1075.007812 365.964844 C 1077.242188 363.25 1079.394531 361.050781 1079.777344 361.046875 C 1080.164062 361.042969 1081.621094 361.796875 1083.039062 362.679688 Z M 338.335938 406.03125 C 339.835938 406.699219 343.917969 408.960938 347.4375 411.015625 C 365.566406 421.710938 380.488281 428.042969 401.164062 433.757812 C 419.316406 438.773438 431.847656 440.691406 471.546875 444.714844 C 501.457031 447.730469 510.351562 448.957031 522.417969 451.863281 C 529.351562 453.539062 534.28125 455.238281 547.269531 460.523438 C 556.101562 464.101562 559.058594 465.136719 560.59375 465.121094 C 562.855469 465.097656 567.3125 466.886719 578.640625 472.402344 C 618.375 491.746094 651.589844 520.554688 676.652344 557.386719 C 686.40625 571.710938 695.417969 588.351562 704.207031 608.109375 C 708.625 618.09375 712.34375 627.019531 711.914062 626.554688 C 711.785156 626.425781 709.445312 623.078125 706.757812 619.136719 C 700.46875 609.941406 692.71875 599.5625 685.238281 590.421875 C 648.175781 545.050781 605.285156 517.625 550.289062 504.117188 C 534.28125 500.1875 517.824219 497.800781 496.207031 496.234375 C 484.886719 495.414062 440.664062 495.753906 425.351562 496.765625 C 419.976562 497.121094 405.855469 498.082031 393.996094 498.890625 C 382.136719 499.699219 368.144531 500.65625 362.855469 501.011719 C 357.226562 501.367188 342.929688 501.734375 328.289062 501.929688 C 307.800781 502.144531 301.738281 502.082031 294.5625 501.515625 C 264.015625 499.148438 241.378906 494.136719 214.121094 483.578125 C 205.117188 480.132812 190.746094 473.367188 190.824219 472.683594 C 190.90625 472.171875 195.28125 470.375 209.652344 464.886719 C 251.875 448.863281 277.609375 436.167969 312.894531 414.070312 C 324.765625 406.601562 325.996094 405.90625 329.105469 405.019531 C 332.042969 404.175781 334.90625 404.488281 338.335938 406.03125 Z M 1175.832031 479.179688 C 1181.890625 483.085938 1225.429688 507.085938 1237.875 513.402344 C 1244.269531 516.621094 1255.085938 522.101562 1261.910156 525.613281 C 1279.976562 534.773438 1307.566406 548.140625 1319.191406 553.355469 C 1331.671875 558.988281 1352.09375 568.761719 1353.472656 569.8125 L 1354.503906 570.613281 L 1349.652344 571.988281 C 1339.011719 575.089844 1326.449219 577.738281 1316.046875 579.128906 C 1307.476562 580.246094 1289.636719 580.433594 1281.046875 579.5 C 1260.617188 577.195312 1238.570312 571.195312 1203.773438 558.457031 C 1174.890625 547.875 1171.121094 546.546875 1159.980469 542.738281 C 1110.671875 526.011719 1068.921875 517.828125 1022.539062 515.753906 C 1012.375 515.304688 986.167969 515.582031 976.015625 516.242188 C 946.28125 518.179688 915.773438 523.324219 890.960938 530.585938 C 853.171875 541.613281 818.433594 558.796875 783.988281 583.492188 C 768.988281 594.234375 757.558594 603.277344 745.164062 614.164062 C 741.019531 617.796875 737.636719 620.691406 737.632812 620.5625 C 737.628906 620.222656 747.234375 608.039062 751.578125 602.914062 C 770.929688 579.914062 799.820312 554.722656 827.039062 537.019531 C 860.703125 515.195312 889.570312 503.707031 929.277344 496.5 C 958.933594 491.109375 983.925781 489.011719 1041.234375 487.167969 C 1080.582031 485.902344 1094.746094 485.199219 1117.179688 483.382812 C 1135.308594 481.867188 1158.03125 479.023438 1168.335938 476.910156 C 1170 476.59375 1171.535156 476.449219 1171.75 476.574219 C 1172.007812 476.699219 1173.8125 477.875 1175.832031 479.179688 Z M 229.804688 501.472656 C 265.953125 513 302.785156 516.328125 360.425781 513.289062 C 365.929688 513.015625 381.882812 511.996094 395.832031 511.035156 C 437.039062 508.210938 440.664062 508.046875 463.457031 507.804688 C 489.625 507.53125 501.964844 508.128906 520.902344 510.617188 C 561.683594 515.949219 599.742188 530.449219 630.109375 552.15625 C 633.679688 554.722656 635.101562 555.902344 632.996094 554.644531 C 624.917969 549.648438 610.238281 542.121094 601.019531 538.203125 C 582.496094 530.417969 560.195312 524.761719 534.464844 521.359375 C 491.972656 515.746094 452.964844 516.625 406.429688 524.203125 C 381.242188 528.308594 359.136719 532.9375 308.460938 544.65625 C 254.125 557.265625 235.46875 561.175781 206.875 565.914062 C 162.515625 573.339844 133.027344 574.207031 99.335938 569.140625 L 92.28125 568.0625 L 94.195312 567.527344 C 95.261719 567.21875 100.113281 565.84375 105.007812 564.46875 C 139.3125 554.84375 174.023438 539.367188 198.398438 522.890625 C 209.839844 515.128906 223.710938 502.773438 223.6875 500.339844 C 223.679688 499.574219 224.105469 499.652344 229.804688 501.472656 Z M 499.980469 530.21875 C 525.09375 531.40625 549.972656 534.769531 569.445312 539.5625 C 602.316406 547.710938 634.679688 564.699219 665.898438 590.285156 C 673.21875 596.269531 693.597656 614.195312 693.605469 614.664062 C 693.605469 614.792969 691.925781 613.53125 689.902344 611.84375 C 680.6875 604.300781 663.617188 592.484375 651.890625 585.523438 C 615.417969 563.878906 569.347656 546.519531 522.03125 536.601562 C 509.152344 533.921875 494.746094 531.851562 477.996094 530.320312 C 474.449219 529.972656 493.402344 529.902344 499.980469 530.21875 Z M 1025.457031 529.382812 C 1073.472656 532.421875 1112.53125 540.460938 1163.898438 557.976562 C 1168.269531 559.46875 1180.523438 563.78125 1191.0625 567.554688 C 1235.371094 583.4375 1256.003906 589.152344 1278.828125 591.902344 C 1283.53125 592.449219 1287.757812 592.574219 1298.472656 592.460938 C 1309.183594 592.351562 1313.410156 592.132812 1318.097656 591.488281 C 1333.613281 589.273438 1352.601562 584.636719 1362.335938 580.648438 L 1366.117188 579.074219 L 1366.941406 580.046875 C 1368.671875 582.289062 1372.292969 589.808594 1376.933594 600.859375 C 1392.613281 638.429688 1400.457031 653.5 1412.355469 668.914062 C 1415.34375 672.765625 1415.300781 672.894531 1412.007812 672.160156 C 1404.476562 670.492188 1384.191406 669.679688 1329.796875 668.972656 C 1298.375 668.578125 1291.074219 668.398438 1245.042969 666.875 C 1116.25 662.679688 1036.582031 661.683594 941.0625 663.160156 C 848.148438 664.605469 804.371094 666.730469 774.878906 671.183594 C 771.726562 671.644531 768.996094 671.929688 768.867188 671.757812 C 768.691406 671.589844 768.34375 670.695312 768.035156 669.761719 C 767.726562 668.824219 766.761719 666.699219 765.933594 665.085938 C 763.757812 660.925781 756.8125 654.210938 750.882812 650.519531 C 748.476562 649.007812 746.5 647.660156 746.457031 647.492188 C 746.453125 647.320312 747.640625 646.496094 749.125 645.585938 C 750.566406 644.714844 756.164062 640.984375 761.503906 637.34375 C 773.117188 629.496094 781.21875 624.671875 795.230469 617.4375 C 842.398438 592.992188 886.171875 578.53125 930.507812 572.644531 C 976.589844 566.566406 1022.199219 568.519531 1075.710938 578.839844 C 1114.292969 586.289062 1143.703125 594.007812 1183.582031 607.117188 C 1236.097656 624.410156 1234.128906 623.789062 1249.75 627.550781 C 1275.515625 633.8125 1291.113281 635.699219 1309.164062 634.824219 C 1315.09375 634.507812 1316.96875 634.273438 1319.519531 633.433594 C 1321.179688 632.863281 1322.582031 632.25 1322.582031 632.121094 C 1322.570312 631.3125 1316.449219 629.539062 1311.148438 628.785156 C 1303.453125 627.714844 1295.753906 626.214844 1282.359375 623.238281 C 1276.371094 621.894531 1268.667969 620.183594 1265.246094 619.492188 C 1248.132812 615.957031 1237.089844 612.914062 1216.011719 605.921875 C 1158.136719 586.726562 1148.886719 583.917969 1121.582031 577.25 C 1085.160156 568.328125 1049.753906 562.210938 1021.726562 559.988281 C 1008.097656 558.890625 998.746094 558.605469 983.078125 558.769531 C 927.847656 559.351562 881.339844 569.488281 831.457031 591.785156 C 820.667969 596.636719 799.480469 607.40625 790.910156 612.445312 C 772.878906 623.007812 759.828125 632.453125 749.984375 642.074219 C 747.40625 644.664062 745.167969 646.738281 745.039062 646.738281 C 744.910156 646.738281 743.277344 645.859375 741.433594 644.8125 C 739.585938 643.722656 735.421875 641.503906 732.160156 639.828125 L 726.195312 636.777344 L 735.492188 631.898438 C 792.378906 601.886719 802.992188 596.609375 826.667969 586.796875 C 873.460938 567.308594 914.070312 556.210938 953.34375 552.125 C 967.285156 550.699219 972.617188 550.386719 990.882812 549.9375 C 1040.132812 548.78125 1077.484375 552.824219 1121.574219 564.230469 C 1147.941406 571.082031 1165.164062 577.046875 1197.921875 590.746094 C 1227.808594 603.28125 1247.210938 609.265625 1261.90625 610.519531 C 1269.382812 611.167969 1276.980469 610.960938 1279.105469 610.039062 C 1280.125 609.644531 1280.933594 609.167969 1280.929688 608.996094 C 1280.929688 608.824219 1280.28125 608.191406 1279.464844 607.519531 C 1278.472656 606.761719 1274.574219 605.265625 1268.191406 603.195312 C 1225.3125 589.175781 1223.425781 588.515625 1203.148438 580.105469 C 1167.21875 565.285156 1145.84375 558.210938 1114.476562 550.855469 C 1076.945312 542.074219 1046.214844 538.511719 1004.847656 538.265625 C 958.914062 538.023438 922.425781 543.101562 881.660156 555.441406 C 852.128906 564.375 817.28125 579 790.285156 593.710938 C 783.578125 597.371094 769.320312 605.542969 765.800781 607.757812 C 765.039062 608.238281 764.402344 608.5 764.398438 608.371094 C 764.394531 608.03125 786.226562 593.328125 795.34375 587.511719 C 838.890625 559.820312 878.636719 543.863281 924.78125 535.566406 C 941.566406 532.527344 957.640625 530.566406 974.449219 529.492188 C 983.535156 528.929688 1017.171875 528.828125 1025.457031 529.382812 Z M 468.433594 542.503906 C 506.660156 544.40625 548.078125 553.574219 591.535156 569.808594 C 609.40625 576.449219 633.984375 587.757812 649.65625 596.558594 C 666.40625 605.902344 687.679688 619.679688 706.175781 633.015625 L 709.402344 635.375 L 700.320312 644.433594 C 694.152344 650.558594 689.246094 655.007812 685.097656 658.210938 C 681.710938 660.851562 677.902344 663.921875 676.589844 665.046875 L 674.21875 667.121094 L 669.988281 666.523438 C 654.855469 664.464844 624.441406 662.734375 587.59375 661.839844 C 577.046875 661.609375 560.136719 661.191406 550.019531 660.914062 C 539.941406 660.679688 515.90625 660.503906 496.65625 660.578125 C 462.507812 660.683594 444.539062 661.085938 381.851562 663.152344 C 287.5 666.238281 270.382812 666.289062 141.742188 664.1875 C 104.769531 663.59375 59.734375 663.597656 49.539062 664.21875 C 35.074219 665.09375 25.699219 666.515625 19.105469 668.890625 C 17.703125 669.375 16.425781 669.773438 16.214844 669.777344 C 15.703125 669.78125 18.671875 663.902344 22.066406 658.144531 C 23.660156 655.441406 29.578125 645.6875 35.242188 636.492188 C 49.007812 614.023438 53.914062 605.390625 66.378906 581.3125 C 68.386719 577.40625 70.105469 574.144531 70.1875 574.054688 C 70.273438 573.96875 70.703125 574.179688 71.089844 574.515625 C 75.269531 578.101562 93.363281 581.667969 119.128906 584.042969 C 129.855469 585.039062 160.074219 584.722656 170.777344 583.5 C 193.882812 580.867188 219.410156 576.667969 247.4375 570.824219 C 253.359375 569.566406 258.300781 568.660156 258.386719 568.746094 C 258.472656 568.832031 255.367188 569.84375 251.453125 571.039062 C 247.496094 572.191406 240.6875 574.4375 236.308594 575.980469 C 223.886719 580.335938 196.519531 591.851562 193.933594 593.800781 C 193.300781 594.316406 191.988281 595.269531 191.011719 596.007812 C 190.082031 596.699219 189.320312 597.433594 189.28125 597.605469 C 189.285156 597.945312 193.296875 598.160156 196.414062 597.957031 C 198.757812 597.847656 218.777344 593.410156 228.695312 590.871094 C 238.359375 588.335938 251.46875 584.570312 274.445312 577.628906 C 353.335938 553.746094 389.324219 545.640625 427.96875 542.972656 C 436.84375 542.363281 460.019531 542.121094 468.433594 542.503906 Z M 260.132812 568.429688 C 260.007812 568.558594 259.621094 568.605469 259.324219 568.480469 C 258.980469 568.355469 259.105469 568.226562 259.578125 568.222656 C 260.046875 568.171875 260.304688 568.300781 260.132812 568.429688 Z M 719.636719 646.621094 C 728.476562 650.96875 745.0625 661.292969 749.589844 665.34375 L 752.390625 667.792969 L 748.765625 668.085938 C 746.460938 668.28125 744.03125 668.816406 741.992188 669.609375 C 725.835938 675.710938 721.664062 676.867188 715.175781 676.933594 C 709.753906 676.992188 706.804688 676.339844 701.910156 674 C 699.378906 672.789062 697.488281 671.527344 695.675781 669.753906 L 693.132812 667.261719 L 694.148438 666.398438 C 698.507812 662.894531 703.367188 658.234375 707.714844 653.40625 C 713.074219 647.457031 715.523438 644.914062 715.90625 644.910156 C 716.035156 644.910156 717.707031 645.660156 719.636719 646.621094 Z M 106.242188 677.792969 C 115.164062 677.957031 135.746094 678.292969 151.925781 678.59375 C 245.898438 680.292969 247.777344 680.316406 283.632812 679.9375 C 317.566406 679.582031 332.546875 679.167969 390.75 677.144531 C 404.703125 676.65625 425.65625 675.925781 437.261719 675.546875 C 466.621094 674.511719 520.488281 673.945312 577.691406 674.070312 C 604.328125 674.128906 636 673.96875 648.035156 673.714844 C 668.136719 673.289062 669.929688 673.3125 669.640625 673.957031 C 667.265625 679.488281 667.269531 683.925781 669.582031 688.769531 C 670.367188 690.382812 671.28125 692.039062 671.667969 692.417969 C 672.792969 693.601562 668.820312 693.601562 577.457031 692.46875 C 557.136719 692.214844 526.609375 691.765625 509.574219 691.476562 C 492.539062 691.1875 468.457031 690.886719 455.992188 690.761719 C 408.605469 690.320312 390.886719 690.121094 370.820312 689.734375 C 320.820312 688.726562 277.792969 688.878906 218.429688 690.273438 C 200.929688 690.671875 179.253906 691.410156 170.207031 691.847656 C 104.71875 695.183594 57.480469 693.035156 32.898438 685.566406 C 28.960938 684.367188 23.6875 682.121094 23.679688 681.605469 C 23.671875 680.667969 35.902344 678.703125 45.96875 678 C 53.179688 677.539062 81.480469 677.414062 106.242188 677.792969 Z M 690.167969 681.507812 C 700.148438 688.875 711.996094 691.308594 724.476562 688.574219 C 728.691406 687.632812 735.585938 685.382812 742.640625 682.578125 C 745.617188 681.394531 748.636719 680.421875 749.320312 680.417969 C 751.710938 680.390625 753.796875 684.039062 753.886719 688.4375 C 753.953125 690.65625 753.910156 690.785156 751.839844 692.597656 C 742.746094 700.804688 724.242188 702.792969 704.382812 697.75 C 692.3125 694.675781 682.558594 688.886719 680.453125 683.53125 C 679.753906 681.746094 679.75 681.574219 680.5 679.816406 C 680.960938 678.789062 681.839844 677.285156 682.515625 676.507812 L 683.652344 675.132812 L 685.210938 677.035156 C 686.074219 678.136719 688.273438 680.121094 690.167969 681.507812 Z M 774.921875 675.449219 C 780.179688 675.992188 795.679688 676.386719 826.804688 676.785156 C 841.832031 677.007812 857.414062 677.230469 861.386719 677.316406 C 865.398438 677.402344 891.996094 677.421875 920.507812 677.335938 C 1044.089844 677.058594 1113.292969 677.824219 1243.480469 680.976562 C 1297.921875 682.285156 1297.367188 682.289062 1331.007812 682.40625 C 1389.066406 682.648438 1403.671875 683.21875 1413.429688 685.636719 C 1416.640625 686.457031 1421.65625 688.707031 1422.992188 689.976562 L 1423.984375 690.902344 L 1423.097656 691.894531 C 1421.199219 693.964844 1415.96875 695.941406 1409.917969 696.898438 C 1402.289062 698.132812 1377.792969 698.6875 1334.59375 698.632812 C 1291.09375 698.578125 1284.433594 698.519531 1240.238281 697.449219 C 1183.109375 696.085938 1153.957031 696.265625 1061.175781 698.476562 C 1014.488281 699.609375 954.554688 699.6875 872.925781 698.75 C 794.285156 697.828125 767.457031 695.933594 767.40625 691.195312 C 767.398438 690.683594 767.761719 688.71875 768.214844 686.835938 C 768.664062 684.949219 769.140625 681.53125 769.285156 679.222656 C 769.535156 674.441406 768.984375 674.832031 774.921875 675.449219 Z M 774.921875 675.449219 " fill-opacity="1" fill-rule="nonzero"/></g></g></g><g clip-path="url(#8e0bbf54c3)"><g clip-path="url(#115e61ce31)"><g clip-path="url(#a362ed4852)"><path fill="#fafafa" d="M 968.289062 593.417969 C 934.804688 595.648438 904.378906 600.921875 870.371094 610.414062 C 837.472656 619.597656 812.9375 628.90625 788.441406 641.5 C 782.15625 644.726562 774.222656 649.417969 774.226562 649.886719 C 774.230469 650.101562 774.316406 650.273438 774.402344 650.269531 C 774.914062 650.265625 786.351562 645.875 793.578125 642.898438 C 810.664062 635.886719 824.996094 630.871094 843.765625 625.507812 C 877.132812 615.894531 910.695312 608.921875 938.328125 605.859375 C 953.207031 604.207031 958.367188 603.898438 976.71875 603.445312 C 1003.265625 602.828125 1013.644531 603.359375 1056.589844 607.601562 C 1099.75 611.886719 1100.433594 611.921875 1105.851562 611.523438 C 1110.285156 611.21875 1111.648438 610.777344 1109.890625 610.15625 C 1109.464844 610.03125 1107.664062 609.324219 1105.90625 608.535156 C 1100.542969 606.242188 1069.265625 599.3125 1052.847656 596.796875 C 1033.523438 593.800781 1020.109375 593 992.832031 593.117188 C 980.882812 593.199219 969.824219 593.316406 968.289062 593.417969 Z M 968.289062 593.417969 " fill-opacity="1" fill-rule="nonzero"/></g></g></g><g clip-path="url(#6f9d010237)"><g clip-path="url(#cebdf3017d)"><g clip-path="url(#80184fb5f3)"><path fill="#fafafa" d="M 987.679688 630.949219 C 945.183594 632.59375 891.097656 636.621094 850.332031 641.148438 C 823.769531 644.117188 793.34375 649.21875 793.785156 650.664062 C 793.875 651.089844 804.804688 650.976562 808.171875 650.554688 C 809.109375 650.417969 816.789062 649.953125 825.234375 649.523438 C 833.683594 649.050781 851.175781 648.097656 864.058594 647.40625 C 960.222656 642.082031 970.761719 641.714844 1063.257812 640.828125 C 1110.976562 640.324219 1141.367188 639.878906 1142.859375 639.605469 C 1144.222656 639.378906 1146.480469 639.011719 1147.972656 638.867188 C 1149.421875 638.683594 1150.613281 638.371094 1150.613281 638.199219 C 1150.609375 638.03125 1149.710938 637.742188 1148.597656 637.582031 C 1147.445312 637.421875 1144.707031 636.855469 1142.480469 636.324219 C 1136.617188 634.933594 1103.632812 632.078125 1076.46875 630.613281 C 1063.910156 629.933594 1008.460938 630.175781 987.679688 630.949219 Z M 987.679688 630.949219 " fill-opacity="1" fill-rule="nonzero"/></g></g></g><g clip-path="url(#c9300db1c2)"><g clip-path="url(#58fd1ade3e)"><g clip-path="url(#51262994e4)"><path fill="#fafafa" d="M 454.347656 554.859375 C 449.65625 555.335938 441.175781 556.578125 434.144531 557.847656 C 423.75 559.707031 403.902344 564.011719 401.308594 564.980469 C 396.375 566.78125 394.929688 567.4375 394.722656 567.824219 C 394.261719 568.808594 402.117188 568.8125 412.863281 567.847656 C 440.285156 565.378906 447.324219 564.878906 457.652344 564.515625 C 489.957031 563.449219 528.390625 569.0625 562.398438 579.804688 C 591.351562 588.933594 635.257812 607.253906 668.945312 624.273438 C 679.847656 629.75 682.292969 630.878906 682.628906 630.492188 C 682.753906 630.359375 681.503906 628.921875 679.777344 627.363281 C 676.15625 623.941406 663.605469 615.707031 653.214844 609.882812 C 630.625 597.269531 596.183594 581.753906 570.863281 572.800781 C 544.8125 563.597656 516.875 557.785156 486.753906 555.328125 C 480.046875 554.757812 458.355469 554.476562 454.347656 554.859375 Z M 454.347656 554.859375 " fill-opacity="1" fill-rule="nonzero"/></g></g></g><g clip-path="url(#cdedd705fa)"><g clip-path="url(#e8471c2484)"><g clip-path="url(#0798c2b946)"><path fill="#fafafa" d="M 398.6875 579.5625 C 378.980469 580.882812 352.976562 584.355469 331.550781 588.59375 C 322.644531 590.351562 314.042969 592.320312 297.652344 596.335938 C 282.492188 600.039062 262.566406 604.773438 248.511719 607.996094 C 232.796875 611.574219 226.625 613.261719 209.351562 618.78125 C 201.398438 621.339844 193.738281 623.769531 192.332031 624.167969 C 189.3125 625.054688 183.496094 628.230469 183.886719 628.78125 C 184.019531 628.992188 184.234375 629.117188 184.402344 628.988281 C 184.570312 628.902344 185.9375 628.972656 187.476562 629.171875 C 195.769531 630.105469 241.394531 621.089844 301.855469 606.578125 C 330.472656 599.703125 344.144531 597.042969 366.609375 593.988281 C 389.800781 590.839844 403.238281 589.972656 426.972656 590.023438 C 444.816406 590.089844 449.941406 590.292969 464.339844 591.464844 C 500.78125 594.367188 546.4375 604.5625 595.269531 620.609375 C 621.699219 629.296875 635.417969 634.828125 657.347656 645.738281 C 663.613281 648.875 668.84375 651.253906 668.972656 650.996094 C 669.515625 650.136719 652.066406 638.710938 640.859375 632.550781 C 612.480469 617.097656 566.375 600.550781 522.507812 590.171875 C 493.792969 583.34375 471.09375 580.253906 441.414062 579.070312 C 431.460938 578.707031 407.859375 578.953125 398.6875 579.5625 Z M 398.6875 579.5625 " fill-opacity="1" fill-rule="nonzero"/></g></g></g><g clip-path="url(#92f9873840)"><g clip-path="url(#fcb2d801f4)"><g clip-path="url(#ed9c203497)"><path fill="#fafafa" d="M 405.320312 621.710938 C 391.800781 622.792969 360.046875 627.398438 355.238281 628.941406 C 351.238281 630.265625 351.15625 630.308594 351.5 630.644531 C 353.269531 632.335938 368.769531 632.726562 393.046875 631.617188 C 429.484375 629.953125 467.523438 630.492188 499.78125 633.097656 C 535.839844 636.046875 561.101562 639.238281 613.910156 647.433594 C 634.390625 650.632812 647.429688 652.460938 649.5625 652.4375 C 649.820312 652.4375 650.03125 652.261719 650.027344 652.050781 C 650.011719 650.597656 609.316406 640.910156 580.484375 635.449219 C 541.863281 628.171875 498.863281 623.117188 461.878906 621.542969 C 450.5625 621.066406 412.144531 621.171875 405.320312 621.710938 Z M 405.320312 621.710938 " fill-opacity="1" fill-rule="nonzero"/></g></g></g><g clip-path="url(#d47cdd8499)"><g clip-path="url(#23f765da12)"><g clip-path="url(#ee98114c60)"><path fill="#fafafa" d="M 80.035156 641.699219 C 78.757812 641.882812 77.691406 642.191406 77.695312 642.449219 C 77.703125 643.003906 81.640625 644.242188 84.976562 644.71875 C 98.230469 646.671875 154.105469 650.480469 190.492188 651.933594 C 231.617188 653.550781 285.699219 653.066406 307.660156 650.871094 C 322.242188 649.4375 332.679688 647.492188 334.203125 645.9375 C 334.414062 645.765625 333.554688 645.347656 332.269531 645.0625 C 330.386719 644.570312 321.339844 644.625 280.492188 645.136719 C 219.113281 645.953125 205.496094 645.757812 144.296875 643.242188 C 101.25 641.476562 84.894531 641.09375 80.035156 641.699219 Z M 80.035156 641.699219 " fill-opacity="1" fill-rule="nonzero"/></g></g></g><g clip-path="url(#4f7301da2c)"><g clip-path="url(#71fa21c1bb)"><g clip-path="url(#dbc8da31e6)"><path fill="#fafafa" d="M 372.394531 644.554688 C 370.601562 644.789062 370.265625 645.347656 371.765625 645.671875 C 373.390625 646.082031 391.976562 647.808594 400.691406 648.398438 C 408.082031 648.917969 421.535156 649.542969 449.167969 650.75 C 453.867188 650.953125 469.363281 651.089844 483.621094 651.070312 C 507.183594 651.035156 509.914062 650.960938 513.40625 650.242188 C 515.496094 649.792969 517.242188 649.304688 517.238281 649.179688 C 517.234375 648.75 510.007812 647.589844 505.90625 647.375 C 504.027344 647.269531 496.039062 646.753906 488.179688 646.238281 C 468.402344 644.996094 457.8125 644.722656 424.558594 644.5625 C 408.71875 644.515625 390.832031 644.445312 384.855469 644.382812 C 378.878906 644.359375 373.246094 644.417969 372.394531 644.554688 Z M 372.394531 644.554688 " fill-opacity="1" fill-rule="nonzero"/></g></g></g></svg>